<?xml version="1.0" encoding="UTF-8"?>
<svg id="Warstwa_1" data-name="Warstwa 1" xmlns="http://www.w3.org/2000/svg" viewBox="0 0 24 24">
  <defs>
    <style>
      .cls-1 {
        fill: #fff;
        fill-rule: evenodd;
      }

      .cls-2 {
        fill: #38cc8c;
      }
    </style>
  </defs>
  <circle class="cls-2" cx="12" cy="12" r="12"/>
  <g>
    <path class="cls-1" d="m6,12.24h0c.44-.33,1.07-.25,1.4.19l4.23,5.58c.33.44.25,1.07-.19,1.4h0c-.44.33-1.07.25-1.4-.19l-4.23-5.58c-.33-.44-.25-1.07.19-1.4Z"/>
    <path class="cls-1" d="m20.2,6.84l-8.56,12.37c-.33.44-.96.53-1.4.19h0c-.44-.33-.53-.96-.19-1.4l8.56-12.37c.33-.44.96-.53,1.4-.19h0c.44.33.53.96.19,1.4Z"/>
  </g>
</svg>